<?xml version="1.0" standalone="no"?><!DOCTYPE svg PUBLIC "-//W3C//DTD SVG 1.1//EN" "http://www.w3.org/Graphics/SVG/1.1/DTD/svg11.dtd"><svg t="1779805137253" class="icon" viewBox="0 0 1024 1024" version="1.1" xmlns="http://www.w3.org/2000/svg" p-id="5224" xmlns:xlink="http://www.w3.org/1999/xlink" width="200" height="200"><path d="M585.478108 1024c-90.340695-2.933447-180.719242-5.251816-271.012623-9.330253-18.423938-0.83272-36.403127-9.027446-54.84599-12.443492-17.250559-3.18894-34.926941-4.050049-52.28159-6.784778-103.503354-16.275898-131.058828-124.434916-94.797642-191.345889 18.4334-33.999593 44.522151-62.662206 88.410298-61.91465 7.163288 0.123016 18.367161 5.857431 20.184006 11.440442 1.902009 5.838505-3.766167 15.878463-8.753027 21.906223-16.219121 19.606779-42.904024 28.795091-53.019683 54.997394-12.736836 32.987081 0.813795 78.47443 37.898239 90.539412 14.421202 4.693515 28.86133 10.162973 43.708355 12.216386 5.015248 0.690779 15.045743-7.17275 16.361063-12.661134 4.078437-17.032916 5.450533-34.775537 7.182213-52.309978 5.914207-60.031567 10.484706-120.224001 17.515515-180.12309 8.828728-75.190863 18.594267-150.296561 29.76029-225.16569 11.213337-75.1814 24.480086-150.05053 37.264236-224.985898 1.845233-10.834827 5.545161-21.433086 9.159924-31.870479 7.229527-20.865322 21.4804-23.429723 37.169608-8.156874 32.315227 31.463581 53.454969 70.355407 74.405456 109.436486 9.557359 17.827786 15.310699 17.553366 35.125658 14.298187 32.599109-5.365369 65.851147-8.923356 98.838228-9.027445 26.855231-0.085165 53.824015 5.422145 80.565694 9.604672 15.547267 2.431922 23.552738-2.394071 30.924206-16.957214 16.881513-33.384516 36.440978-65.415861 55.196111-97.835179 2.441385-4.229841 6.245403-7.797291 9.860166-11.213336 14.742935-13.966991 24.782893-11.402591 29.930619 8.790877 5.706027 22.398285 10.42793 45.089914 14.553681 67.83832 8.090635 44.597852 15.376938 89.347109 23.155303 134.001738 6.463045 37.131757 14.250873 74.064798 19.493227 111.357421 7.825679 55.621934 13.654721 111.518288 20.874785 167.234849 5.952058 45.951023 13.82505 91.684403 18.764596 137.739517 5.724952 53.398192 9.500582 107.014028 13.370839 160.592012 1.00305 13.891289-4.173064 24.480086-21.082965 25.36012-74.66095 3.889183-149.274586 8.648936-223.944998 12.102833-29.892768 1.381559-59.908552 0.227106-89.867559 0.227105-0.018925 0.823258-0.037851 1.62759-0.066239 2.441385zM408.420944 513.637053c-0.170329 21.433086 20.931562 44.711405 40.983089 45.203467 19.720332 0.482599 41.664406-22.436136 42.118617-44.001701 0.510987-23.647365-18.972776-45.430573-40.907388-45.761768-22.398285-0.331196-42.005064 20.37326-42.194318 44.560002z m327.930951-44.578927c-21.972462 0.028388-41.711719 21.546639-41.503539 45.260243 0.189255 21.537176 21.764282 44.616778 41.64548 44.550539 19.85281-0.066239 41.408912-23.297244 41.484614-44.711405 0.085165-23.978561-19.43645-45.127765-41.626555-45.099377zM552.169294 605.236291c2.431922 0.898959 5.989909 3.633689 8.771952 2.990223 18.916-4.333931 37.529192-9.017983 56.814239-0.93681 3.340344 1.400484 8.412368-1.362633 11.913578-2.04395-12.320476-5.630325-23.760918-11.175486-35.494705-15.973091-2.46031-1.00305-6.283254 0.160866-9.055834 1.324783-10.503632 4.409633-20.846397 9.226163-32.94923 14.638845z" p-id="5225"></path></svg>
